<?xml version="1.0" encoding="UTF-8" standalone="no"?>
<!-- Created with Inkscape (http://www.inkscape.org/) -->
<svg id="svg3470" xmlns:rdf="http://www.w3.org/1999/02/22-rdf-syntax-ns#" xmlns="http://www.w3.org/2000/svg" height="312.81" viewBox="0 0 431.94656 312.8056" width="431.95" version="1.1" xmlns:cc="http://creativecommons.org/ns#" xmlns:dc="http://purl.org/dc/elements/1.1/">
 <metadata id="metadata3476">
  <rdf:RDF>
   <cc:Work rdf:about="">
    <dc:format>image/svg+xml</dc:format>
    <dc:type rdf:resource="http://purl.org/dc/dcmitype/StillImage"/>
    <dc:title/>
   </cc:Work>
  </rdf:RDF>
 </metadata>
 <g id="g4414" transform="matrix(1 0 0 .99178 -785.76 -120.48)">
  <path id="path4374" d="m1109.2 436.38c-1.6803-.47474-4.1553-2.0341-5.5-3.4652l-2.4449-2.602-.5-72.098-.5-72.098-38.313-20.201-38.313-20.201-3.8891 1.879c-2.556 1.2349-6.0723 1.879-10.258 1.879-16.541 0-28.391-14.52-24.832-30.426 3.8838-17.355 22.961-25.411 38.337-16.19 6.1691 3.6998 10.772 10.483 11.501 16.947l.4976 4.415 41.604 21.877c22.882 12.032 42.968 23.077 44.634 24.544l3.0301 2.6677.2682 77.097c.2358 67.794.082 77.456-1.2708 80.073-2.6367 5.0987-8.371 7.5071-14.052 5.9019z"/>
  <path id="path4372" d="m925.73 382.82c-41.525-21.793-75.831-40.124-76.235-40.736-.40408-.61139-.74158-16.088-.75-34.393-.0133-28.941.18397-33.358 1.5126-33.868.9134-.3505 31.009 15.147 74.828 38.531 54.856 29.275 74.149 39.118 76.673 39.118 2.4796 0 14.033-5.6974 43.597-21.5 22.123-11.825 40.932-21.5 41.799-21.5 1.4029 0 1.5751 3.7596 1.5751 34.394v34.394l-43.352 22.606c-23.844 12.433-43.531 22.599-43.75 22.592-.219-.008-34.373-17.845-75.898-39.638z"/>
  <path id="path4370" d="m1136.7 315.72.014-34.75 14.87-7.75c8.1788-4.2625 15.372-7.75 15.986-7.75.7991 0 1.1153 9.9012 1.1153 34.926v34.926l-14.392 7.5737c-7.9157 4.1656-15.116 7.5737-16 7.5737-1.4466 0-1.6065-3.4856-1.5936-34.75z"/>
  <path id="path4366" d="m893.01 282.2c-72.55-38.72-107.23-57.74-107.25-58.81-.0188-1.1344 30.539-15.87 107.31-51.75 59.036-27.59 107.94-50.164 108.67-50.164.7326 0 49.63 22.578 108.66 50.172 76.432 35.729 107.32 50.627 107.3 51.75-.018 1.0458-13.792 8.9094-40.861 23.328-22.459 11.962-41.161 21.75-41.56 21.75-.3996 0-2.5997-2.0666-4.889-4.5924-3.5267-3.891-10.193-7.7707-43.651-25.405-21.719-11.447-39.804-21.418-40.19-22.158-.3857-.74001-1.8131-3.8993-3.1719-7.0206-3.3963-7.8016-9.5603-14.164-17.512-18.075-6.1204-3.0104-7.3453-3.2499-16.623-3.2499-8.9348 0-10.628.30081-15.693 2.7881-7.5686 3.7168-15.972 12.823-18.794 20.366-2.4612 6.578-2.8993 16.457-1.0354 23.346 5.0651 18.721 24.932 30.26 44.831 26.037l5.8254-1.2362 31.171 16.349c19.99 10.485 31.161 16.887 31.144 17.849-.028 1.532-82.366 46.024-85.082 45.975-.7596-.0137-49.632-25.776-108.6-57.25z"/>
 </g>
</svg>
